<svg xmlns="http://www.w3.org/2000/svg" xmlns:xlink="http://www.w3.org/1999/xlink" viewBox="0 0 1596.79 499.49"><defs><style>.cls-1{fill:#fff;}.cls-2{fill:url(#radial-gradient);}.cls-3{fill:url(#radial-gradient-2);}.Graphic-Style-4{fill:url(#FINAL_3);}.cls-4{fill:#565454;}.cls-5{fill:#dc2027;}</style><radialGradient id="radial-gradient" cx="336.67" cy="323.93" r="0.87" gradientUnits="userSpaceOnUse"><stop offset="0" stop-color="#1d1d1b" stop-opacity="0"/><stop offset="0.43" stop-color="#1d1d1b" stop-opacity="0"/><stop offset="0.71" stop-color="#1c1c1b" stop-opacity="0.14"/><stop offset="0.92" stop-color="#1d1d1b" stop-opacity="0"/></radialGradient><radialGradient id="radial-gradient-2" cx="280.25" cy="148.18" r="572.06" gradientUnits="userSpaceOnUse"><stop offset="0" stop-color="#1c1c1b" stop-opacity="0"/><stop offset="0.43" stop-color="#1c1c1b" stop-opacity="0"/><stop offset="0.71" stop-color="#1c1c1b" stop-opacity="0.14"/><stop offset="0.92" stop-color="#1c1c1b" stop-opacity="0"/></radialGradient><radialGradient id="FINAL_3" cx="287.85" cy="153.73" r="460.87" gradientUnits="userSpaceOnUse"><stop offset="0" stop-color="#dc2027"/><stop offset="0.43" stop-color="#dc2027"/><stop offset="0.71" stop-color="#9f1c22"/><stop offset="0.92" stop-color="#dc2027"/></radialGradient></defs><g id="Layer_2" data-name="Layer 2"><g id="Vector_Smart_Object_Image" data-name="Vector Smart Object Image"><line class="cls-1" x1="335.99" y1="323.93" x2="337.33" y2="323.94"/><line class="cls-2" x1="335.99" y1="323.93" x2="337.33" y2="323.94"/><path class="cls-1" d="M437.87,0A227.24,227.24,0,0,1,276,67.49,227.24,227.24,0,0,1,114.13,0C45,50.16,0,131.55,0,223.49c0,152.43,123.57,276,276,276s276-123.57,276-276C552,131.55,507,50.16,437.87,0Z"/><path class="cls-3" d="M437.87,0A227.24,227.24,0,0,1,276,67.49,227.24,227.24,0,0,1,114.13,0C45,50.16,0,131.55,0,223.49c0,152.43,123.57,276,276,276s276-123.57,276-276C552,131.55,507,50.16,437.87,0Z"/><path class="Graphic-Style-4" d="M276,115.49A274.65,274.65,0,0,1,114.13,63,227.25,227.25,0,0,0,48,223.49c0,125.92,102.08,228,228,228s228-102.08,228-228A227.25,227.25,0,0,0,437.87,63,274.65,274.65,0,0,1,276,115.49Z"/><path class="cls-1" d="M438.24,116.1c-6.39,6.48-36.61,45.41-106,72.25,0,0,10.8,30.3-3.08,48-6.61,8.42-16.86,12.13-25.8,13.74a51.61,51.61,0,0,0-11-17.05c-11.06-11.6-10.58-14.35-10.9-20.2.63-19.59,7.2-32.25,11.06-36.88a81.55,81.55,0,0,1,15.69-14.25,88.34,88.34,0,0,1,12.14-7.05,15.18,15.18,0,0,1,8.78-.78,16.51,16.51,0,0,0-3.13-6c-4.1-5-12-1.77-18.46,1l0-.06a9.45,9.45,0,0,0-11-3.73L251,161.88c3.12,5.4,9.74,6.05,15.89,4.21-6.88,10.52-9.79,29.15-11.13,42.66h.06c-1,9-.34,20.05-2.1,28.85a23.18,23.18,0,0,1-6.22,11.9c-8.24-1.85-17.13-5.62-23.07-13.19-13.89-17.67-3.09-48-3.09-48C152,161.51,120.15,122.58,113.76,116.1c.18,3.56,1,63.68,35.3,104.22,14.36,17,43.63,31.91,68.91,42.48,10.49,4.66,55.85,26.79,33.81,52-7.16,8.19-24.62,5.05-24.62,5.05l12.64,37.29s12.48-6,17.37-13.59c5.24-8.1,9.72-9.6,9.72-9.6L255,384.27,276.8,428.1l21.78-43.83L286.71,334s4.48,1.5,9.71,9.6c4.9,7.58,17.38,13.59,17.38,13.59l12.63-37.29S309,323,301.82,314.81c-22-25.22,23.31-47.34,33.8-52,25.29-10.57,54.56-25.49,68.91-42.48C438.8,179.78,438.06,119.66,438.24,116.1Z"/><path class="cls-4" d="M706.11,224.31c7.92-3.68,12.44-5.37,18.09-5.37,34.2,0,58.51,28,58.51,59.64,0,41.27-32.22,72.08-73.49,72.08-15.83,0-30.25-2.83-49.75-10.18V187.28c0-16.4-1.41-18.66-17.24-20.07v-8.48c14.41-1.7,37.31-5.66,53.42-10.18v80.84Zm-10.46,92.43a27.16,27.16,0,0,0,1.41,9.33c1.7,4.52,8.2,13,17.25,13.28,15.26.28,29.11-16.68,29.11-52,0-35.9-18.09-50-36.18-50-4.52,0-7.35.85-11.59,2Z"/><path class="cls-4" d="M894.36,350.66c-7.63,0-13.56-2.55-17.24-5.94a26.35,26.35,0,0,1-7.35-10.46c-10.74,7.07-24,16.4-29.39,16.4-24,0-38.16-18.66-38.16-36.18,0-14.7,6.78-21.77,21.48-27.14,16.68-6.22,38.44-13,44.94-18.65V260.2c0-17.8-6.78-27.7-17.24-27.7-3.68,0-6.78,1.7-9.33,5.09-3.39,4-5.94,10.74-8.2,19.51-2,7.35-5.93,9.61-11.87,9.61-7.35,0-17.52-6.79-17.52-14.14,0-5.09,3.39-8.76,9.89-13.56,10.74-7.35,30.81-17.25,46.92-20.07,11.59,0,20.07,2.54,27.7,8.19,12.16,9.33,14.7,21.49,14.7,37.32v46.63c0,13,4.52,16.68,9,16.68,3.39,0,6.5-1.13,9.61-2.26l2.83,9.05Zm-25.72-71c-5.08,2.54-9.89,5.65-15.54,8.76-8.77,4.52-13.29,9.61-13.29,19.22,0,15.83,10.46,21.77,17,21.77,4,0,7.07-1.13,11.87-4.53Z"/><path class="cls-4" d="M929.69,347.26v-9c16.68-2.54,18.38-4,18.38-22.05V186.71c0-17-1.42-17.8-17-19.78v-8.2c16.11-2,37-5.66,52.85-10.18V316.17c0,18.94,1.7,20.07,18.94,22.05v9Z"/><path class="cls-4" d="M1160.07,339.92c-6.78,1.13-33.36,4.52-55.69,11V334.55l-17,11c-7.06,4.24-11,5.09-14.41,5.09-24,0-57.66-19.79-57.66-61.91,0-38.44,33.35-69.81,77.44-69.81,2.27,0,5.38.56,11.59,1.41v-34.2c0-15.27-1.69-16.68-18.94-18.66v-8.76c18.09-2.26,40.71-5.94,55.12-10.18v163.1c0,16.11,1.42,17.24,13.29,18.66l6.22.56Zm-55.69-94.41c-4.52-9.9-12.15-14.7-20.35-14.7-6.78,0-28.55,7.35-28.55,50.31.29,34.77,20.35,48.05,33.35,48.05a25.46,25.46,0,0,0,15.55-4.52Z"/><path class="cls-4" d="M1359.35,231.37c-13.57,2.26-15.55,4.53-21.49,19.22-10.45,26.29-22.32,60.21-36.18,99.78h-10.74c-11-26.56-22.61-53.14-33.07-78.86-10.74,26.29-20.63,52-31.37,78.86h-10.75c-11.3-34.76-23.45-69.53-33.92-101.19-4.8-13.57-7.35-16.39-19.21-17.81v-9h69.81v9c-16.11,2.55-18.09,5.09-15,14.7,5.65,18.09,11.31,37.31,16.68,55.12h.56c9.9-24.59,19.23-50.6,29.4-77.45h11c10.17,26,20.91,51.73,31.94,78h.56c4.52-13.29,13.29-41.56,15.83-53.71,2.55-10.74,1.13-14.13-16.39-16.68v-9h52.29Z"/><path class="cls-4" d="M1366.42,347.26v-9c16.39-2,18.09-3.11,18.09-23.18v-56c0-18.66-2-19.51-15.55-21.77v-8.2a338.69,338.69,0,0,0,51.45-10.17V315c0,19.51,1.41,20.92,18.37,23.18v9Z"/><path class="cls-4" d="M1530.93,347.26v-9c11.87-2,13.29-2.82,13.29-22.9V267.27c0-20.35-9.33-26.57-19.51-26.57-7.07,0-13.57,3.11-20.92,8.76v68.41c0,17.53,1.7,18.37,13.29,20.35v9H1449v-9c17.52-2.54,18.94-2.82,18.94-21.76V257.94c0-17-1.42-18.09-15.27-20.63v-8.2a343.55,343.55,0,0,0,51.16-10.74v20.92c5.66-4,11.31-8.48,17.53-12.44,8.48-5.37,13.85-7.91,22-7.91,22.89,0,37,17,37,45.22v53.42c0,17.82,1.69,18.38,16.39,20.64v9Z"/><path class="cls-5" d="M1422.14,182.49a20.94,20.94,0,1,1-20.94-20.93A20.94,20.94,0,0,1,1422.14,182.49Z"/></g></g></svg>