<?xml version="1.0" encoding="UTF-8"?><svg xmlns="http://www.w3.org/2000/svg" viewBox="0 0 300 95"><g id="bull"><path class="a" fill="#c7c9cb" d="M10.65,57.89C11.31,61.88,26,93,30.14,94a31.66,31.66,0,0,0,5.11,1s-16.71-46.49-21-54.94a112.83,112.83,0,0,0-3.58,17.83"/><path class="a" fill="#c7c9cb" d="M62.41,57.89C61.76,61.88,47.1,93,42.92,94a31.76,31.76,0,0,1-5.1,1s16.7-46.49,21-54.94a112.83,112.83,0,0,1,3.58,17.83"/><path class="a" fill="#c7c9cb" d="M23,11.1S11.83,9,8.09,8c-.42-.1-.86-.32-.86-.75,0-1.72-.13-4.46,0-6.6A.65.65,0,0,0,6,.35C3.31,5.59-.82,11.2.14,12.89,1,14.13,19,22.2,19,22.2Z"/><path class="a" fill="#c7c9cb" d="M49.88,11.1S61,9,64.74,8c.43-.1.86-.32.86-.75,0-1.72.14-4.46,0-6.6A.65.65,0,0,1,66.86.35c2.66,5.24,6.79,10.85,5.83,12.54-.82,1.24-18.86,9.31-18.86,9.31Z"/><path class="a" fill="#c7c9cb" d="M26.07,35.86l-1.38-.38-3.23-3.33-.56-1.57-1.06-1.16-.78-.77a.6.6,0,0,0-.84,0,.45.45,0,0,0-.11.17A51.1,51.1,0,0,0,15.32,37c.12,1.86,6.68,16.15,8.08,17.37,2.2-2.76,3.79-14.3,3.87-16.92C27.24,37.19,27.17,37.05,26.07,35.86Z"/><path class="a" fill="#c7c9cb" d="M36.46,7.31c3.11,0,10.92,1.18,11.19,1.69s6.17,15.68,6.17,17.38c-.45,1.53-9.41,9-10.16,10.62,0,1.56,2.41,13.31,2.29,15.56-1.57.92-7.07,1.8-9.49,1.8s-7.92-.89-9.49-1.8c-.13-2.25,2.29-14,2.29-15.56-.75-1.65-9.71-9.09-10.16-10.62,0-1.71,6-17,6.17-17.38s8.08-1.69,11.2-1.69"/><path class="a" fill="#c7c9cb" d="M36.46,55.75c2.63,0,9.5-1.77,10.15-1.64.44.6,1.83,2.4,1.72,3.18-.34,2.52-3.71,9.26-4.31,10-.42.48-4.58,1.35-7.56,1.35s-7.15-.87-7.57-1.35c-.6-.7-4-7.44-4.31-10-.1-.78,1.28-2.58,1.72-3.18.65-.13,7.52,1.64,10.15,1.64Z"/><path class="a" fill="#c7c9cb" d="M46.85,35.86l1.38-.38,3.23-3.33L52,30.58l1.06-1.16.78-.77a.6.6,0,0,1,.84,0,.66.66,0,0,1,.12.17A52.07,52.07,0,0,1,57.59,37c-.12,1.86-6.68,16.15-8.08,17.37-2.19-2.76-3.79-14.3-3.87-16.92C45.68,37.19,45.74,37.05,46.85,35.86Z"/></g><path class="b" fill="#bcb500" d="M95.31,41.11v8.46H88.72V26.19h6.59Zm8-5.32h19.53v-9.6h6.58V49.57h-6.58V41.11H111.11Z"/><path class="a" fill="#c7c9cb" d="M142.39,26.19,154.13,36h.07L166,26.19h9.31v.31L157.45,41.42v8.15h-6.58V41.42L133.06,26.5v-.31Z"/><path class="a" fill="#c7c9cb" d="M185.51,44.24H213v5.33H178.94V26.19h6.58Z"/><path class="a" fill="#c7c9cb" d="M223.38,39.91v4.92h31.7v4.74H216.8V26.19H255v4.75h-31.6v4.57h30.11v4.4Z"/><path class="a" fill="#c7c9cb" d="M286.85,37.61c4.65,0,5.68-1.07,5.68-3s-1.07-3.06-5.85-3.06H266.79V49.57H260.2V26.19h26.44c9.94,0,12.54,3.34,12.54,8.39,0,4.26-2.56,6.91-9.08,7.63v.1c.77.48,1.67,1.07,2.57,1.72l7.21,5.29v.24h-9l-16-12Z"/><path class="b" fill="#bcb500" d="M300,73V62.75h-1V71.4l-5.14-8.65h-1.3V73h1V64.27L298.78,73ZM288.27,62.75h-1.08V73h1.08Zm-6.59,6.63h-4.11l1.78-4.68.33-.92.3.92Zm-4.46.93H282l1,2.7h1.08l-3.76-10.26h-1.28L275.12,73h1.09Zm-6.28-4.61a2.86,2.86,0,0,1-.17,1.12,1.36,1.36,0,0,1-1.28.65h-3.65V63.73h3.46a1.47,1.47,0,0,1,1.51.77,4.43,4.43,0,0,1,.14,1.2m1.07-.1a3.8,3.8,0,0,0-.27-1.6,2.16,2.16,0,0,0-2.24-1.25h-4.7V73h1V68.39h3.5L271.58,73h1.2l-2.4-4.85a1.78,1.78,0,0,0,1.37-1A3.75,3.75,0,0,0,272,65.6m-10.32-1.87v-1h-8v1h3.46V73h1.06V63.73ZM251.22,73V72h-5.71V68.32H251v-1h-5.44V63.73h5.65v-1h-6.69V73ZM241.4,62.75h-1.09l-3.43,9.12-3.44-9.12h-1.12L236.21,73h1.3Zm-12.15,0h-1.08V73h1.08Zm-6.34,3a3.28,3.28,0,0,1-.17,1.12,1.36,1.36,0,0,1-1.29.64H217.8V63.72h3.46a1.47,1.47,0,0,1,1.51.78,4,4,0,0,1,.14,1.2m1.07-.11a3.61,3.61,0,0,0-.27-1.59,2.15,2.15,0,0,0-2.24-1.25h-4.7V73h1V68.39h3.5L223.54,73h1.21l-2.41-4.84a1.78,1.78,0,0,0,1.37-1,3.65,3.65,0,0,0,.28-1.63m-12.53,5.73a2.61,2.61,0,0,1-2.15.7h-3V63.73h3a2.65,2.65,0,0,1,2,.65c.51.5.68,1.64.68,3.37s-.1,3-.61,3.57m.86.64c.61-.75.81-2,.81-4.22s-.25-3.36-.9-4.07a3.58,3.58,0,0,0-2.83-.92h-4.1V73h4.22A3.25,3.25,0,0,0,212.31,72M194.64,65.7a3.28,3.28,0,0,1-.17,1.12,1.36,1.36,0,0,1-1.29.64h-3.65V63.72H193a1.46,1.46,0,0,1,1.51.78,4,4,0,0,1,.14,1.2m1.08-.11a3.84,3.84,0,0,0-.28-1.6,2.14,2.14,0,0,0-2.24-1.24h-4.7V73h1V68.39H193L195.27,73h1.21l-2.41-4.84a1.81,1.81,0,0,0,1.37-1,3.65,3.65,0,0,0,.28-1.63m-11.37,4.59V62.75h-1v7.39c0,1.33-1.17,2-2.69,2-1.86,0-2.8-.75-2.8-2.05V62.75h-1v7.39c0,2.08,1.59,3,3.83,3s3.75-1,3.75-2.95m-15.45,2a3,3,0,0,1-2.21-.75,4.79,4.79,0,0,1-1.1-3.53,5,5,0,0,1,.91-3.42,3,3,0,0,1,2.39-.87,3.08,3.08,0,0,1,2.41.87,5,5,0,0,1,.91,3.39,4.86,4.86,0,0,1-1,3.51,3.11,3.11,0,0,1-2.29.81m0-9.56a4,4,0,0,0-3.27,1.31,5.52,5.52,0,0,0-1.1,3.92,5.74,5.74,0,0,0,1.19,4.07,4.79,4.79,0,0,0,6.38,0,5.84,5.84,0,0,0,1.17-4.09,5.75,5.75,0,0,0-1.07-4,4,4,0,0,0-3.3-1.27M156,70.23c0-4.33-6.79-1.68-6.79-5,0-.92.74-1.64,2.56-1.64s2.73.57,3,2h1.08c-.28-1.84-1.33-2.94-4-2.94s-3.71,1.22-3.71,2.65c0,4.25,6.79,1.69,6.79,5.09,0,1.06-.71,1.84-2.73,1.84-1.87,0-3-.64-3.1-2.16H148c.08,1.93,1.39,3.1,4.21,3.1,2.63,0,3.79-1.22,3.79-2.91m-11.75-7.49h-1.08V73h1.08ZM133.94,73V72h-5.7V68.33h5.43v-1h-5.43v-3.6h5.65v-1H127.2V73Zm-12-7.32a3.28,3.28,0,0,1-.17,1.12,1.37,1.37,0,0,1-1.29.65h-3.65V63.73h3.46a1.46,1.46,0,0,1,1.51.78,4.35,4.35,0,0,1,.14,1.19m1.07-.1a3.65,3.65,0,0,0-.27-1.6,2.16,2.16,0,0,0-2.24-1.25h-4.7V73h1V68.39h3.5L122.57,73h1.21l-2.41-4.85a1.76,1.76,0,0,0,1.37-1A3.61,3.61,0,0,0,123,65.6m-12.49,6a1.93,1.93,0,0,1-1.32.43h-4V68.29h4a1.79,1.79,0,0,1,1.25.45,2,2,0,0,1,.55,1.5,1.84,1.84,0,0,1-.5,1.41m-.13-6.15a2.11,2.11,0,0,1-.57,1.57,1,1,0,0,1-.77.31h-3.79V63.69h3.43a1.69,1.69,0,0,1,1.21.43,2,2,0,0,1,.5,1.38m1,6.8a3.12,3.12,0,0,0,.07-3.92,2.26,2.26,0,0,0-1.36-.67,1.54,1.54,0,0,0,.67-.38,3,3,0,0,0,.72-2,2.59,2.59,0,0,0-.64-1.82,2.65,2.65,0,0,0-2-.72h-4.64V73h5.09a2.77,2.77,0,0,0,2-.72M99.92,62.76H98.85V73h1.07Zm-4.63,1v-1H88.6V73h1.05V68.33H95v-1H89.65v-3.6Z"/></svg>
