<svg id="Layer_1" data-name="Layer 1" xmlns="http://www.w3.org/2000/svg" viewBox="0 0 418.715 234.332"><defs><style>.cls-3{stroke-width:0;fill:#232a33}</style></defs><path class="cls-3" d="M84.135 193.716h2.393v7.287a5.474 5.474 0 011.935-1.606 5.46 5.46 0 012.443-.554c1.83 0 3.315.627 4.454 1.88s1.709 3.102 1.709 5.544c0 2.315-.563 4.238-1.689 5.77-1.125 1.53-2.685 2.296-4.68 2.296-1.116 0-2.058-.268-2.827-.806-.458-.32-.947-.83-1.468-1.531v1.873h-2.27v-20.153zm9.41 16.858c.663-1.058.994-2.453.994-4.184 0-1.54-.331-2.816-.994-3.828s-1.64-1.518-2.929-1.518c-1.125 0-2.11.415-2.956 1.244-.846.83-1.27 2.197-1.27 4.102 0 1.376.175 2.493.522 3.35.65 1.613 1.861 2.42 3.635 2.42 1.336 0 2.335-.529 2.998-1.586zm15.521-11.348h2.72a903.58 903.58 0 00-2.31 6.429 322.105 322.105 0 01-2.242 6.155c-1.42 3.734-2.423 6.01-3.005 6.831-.583.82-1.585 1.23-3.006 1.23a5.74 5.74 0 01-.798-.042 6.205 6.205 0 01-.69-.15v-2.242c.427.118.736.191.927.219.192.027.36.04.506.04.455 0 .789-.075 1.003-.225.214-.15.394-.334.54-.552.045-.073.208-.446.49-1.119a73.9 73.9 0 00.615-1.5l-5.414-15.074h2.789l3.924 11.927 3.95-11.927zm12.626 0h2.433v2.078c.583-.72 1.112-1.244 1.586-1.572.811-.556 1.732-.834 2.762-.834 1.166 0 2.105.287 2.816.861.401.328.766.812 1.094 1.45.547-.785 1.19-1.366 1.928-1.744s1.567-.567 2.488-.567c1.969 0 3.309.71 4.02 2.133.382.765.574 1.796.574 3.09v9.748h-2.557v-10.172c0-.976-.244-1.646-.731-2.01-.488-.364-1.083-.547-1.784-.547-.967 0-1.798.323-2.496.97s-1.045 1.728-1.045 3.241v8.518h-2.502v-9.557c0-.993-.119-1.718-.356-2.174-.374-.684-1.071-1.025-2.092-1.025-.93 0-1.775.36-2.536 1.08-.761.72-1.141 2.023-1.141 3.91v7.766h-2.461v-14.643zm32.368.404c.97.487 1.708 1.118 2.215 1.893.49.738.815 1.6.979 2.584.144.675.217 1.75.217 3.226h-10.65c.045 1.49.393 2.685 1.044 3.585.651.9 1.66 1.35 3.025 1.35 1.275 0 2.293-.425 3.052-1.276a4.348 4.348 0 00.904-1.717h2.42c-.064.538-.276 1.137-.636 1.798-.36.66-.762 1.2-1.205 1.62-.742.73-1.66 1.221-2.754 1.476a8.324 8.324 0 01-1.995.22c-1.811 0-3.347-.664-4.605-1.99-1.26-1.326-1.89-3.184-1.89-5.571 0-2.352.635-4.261 1.903-5.729s2.926-2.201 4.973-2.201c1.033 0 2.034.244 3.003.731zm.882 5.748c-.1-1.066-.33-1.919-.692-2.556-.669-1.185-1.785-1.778-3.348-1.778-1.121 0-2.06.409-2.82 1.224s-1.162 1.853-1.207 3.11h8.067zm13.691-5.701c.436.274.93.752 1.484 1.436v-7.397h2.366v20.153h-2.215v-2.038c-.572.903-1.249 1.554-2.03 1.956-.78.4-1.675.601-2.683.601-1.625 0-3.032-.685-4.222-2.058s-1.784-3.197-1.784-5.475c0-2.133.543-3.98 1.628-5.544s2.635-2.345 4.65-2.345c1.117 0 2.052.238 2.806.711zm-5.493 10.979c.662 1.057 1.723 1.586 3.183 1.586 1.133 0 2.065-.49 2.795-1.47s1.095-2.386 1.095-4.218c0-1.85-.376-3.22-1.129-4.108-.753-.889-1.682-1.333-2.788-1.333-1.234 0-2.234.473-3 1.422-.766.948-1.15 2.342-1.15 4.183 0 1.568.332 2.88.994 3.938zm13.02-16.871h2.502v2.789h-2.502v-2.79zm0 5.51h2.502v14.574h-2.502v-14.575zm6.713-4.157h2.489v4.088h2.338v2.01h-2.338v9.556c0 .511.172.853.52 1.026.19.1.51.15.956.15.118 0 .246-.003.383-.009s.296-.021.479-.046v1.956a5.465 5.465 0 01-.882.177 8.458 8.458 0 01-.992.055c-1.148 0-1.927-.294-2.337-.882s-.616-1.351-.616-2.29v-9.693h-1.982v-2.01h1.982v-4.088zm16.332 4.492c.97.487 1.707 1.118 2.215 1.893.489.738.815 1.6.978 2.584.145.675.218 1.75.218 3.226h-10.65c.045 1.49.393 2.685 1.044 3.585.65.9 1.66 1.35 3.024 1.35 1.276 0 2.293-.425 3.053-1.276a4.348 4.348 0 00.904-1.717h2.42c-.065.538-.276 1.137-.636 1.798-.36.66-.762 1.2-1.205 1.62-.742.73-1.66 1.221-2.755 1.476a8.324 8.324 0 01-1.994.22c-1.812 0-3.347-.664-4.606-1.99-1.26-1.326-1.889-3.184-1.889-5.571 0-2.352.634-4.261 1.903-5.729 1.268-1.468 2.926-2.201 4.973-2.201 1.033 0 2.034.244 3.003.731zm.881 5.748c-.1-1.066-.33-1.919-.691-2.556-.67-1.185-1.785-1.778-3.349-1.778-1.12 0-2.06.409-2.82 1.224s-1.161 1.853-1.206 3.11h8.066zm15.32-5.373c1.034.802 1.656 2.183 1.866 4.143h-2.393c-.146-.902-.478-1.652-.998-2.25s-1.353-.895-2.502-.895c-1.568 0-2.689.765-3.363 2.294-.438.992-.656 2.217-.656 3.674 0 1.465.31 2.698.93 3.7.619 1.001 1.594 1.502 2.925 1.502 1.02 0 1.83-.31 2.427-.932.597-.622 1.01-1.474 1.237-2.554h2.393c-.274 1.941-.957 3.361-2.051 4.259s-2.493 1.346-4.197 1.346c-1.914 0-3.441-.699-4.58-2.098-1.14-1.4-1.71-3.147-1.71-5.243 0-2.57.625-4.572 1.874-6.002 1.248-1.431 2.839-2.147 4.771-2.147 1.65 0 2.992.402 4.027 1.203zm4.327-6.289h2.46v7.492c.584-.738 1.108-1.257 1.573-1.558.793-.52 1.782-.78 2.967-.78 2.124 0 3.563.744 4.32 2.229.41.812.615 1.937.615 3.377v9.393h-2.529v-9.229c0-1.075-.137-1.864-.41-2.365-.446-.802-1.285-1.203-2.516-1.203-1.02 0-1.946.35-2.775 1.052s-1.244 2.029-1.244 3.979v7.766h-2.461v-20.153zm14.929 11.088h6.864v2.53h-6.864v-2.53zm9.762-5.51h2.406v1.942c.495-.665 1.034-1.18 1.619-1.545.83-.547 1.808-.82 2.932-.82 1.663 0 3.075.635 4.236 1.907 1.16 1.271 1.74 3.088 1.74 5.448 0 3.19-.836 5.469-2.511 6.836-1.062.866-2.297 1.299-3.706 1.299-1.107 0-2.036-.241-2.786-.725-.44-.273-.929-.743-1.469-1.408v7.478h-2.46v-20.412zm9.259 11.478c.764-.962 1.145-2.4 1.145-4.314 0-1.167-.169-2.169-.507-3.007-.64-1.614-1.811-2.42-3.512-2.42-1.71 0-2.881.852-3.512 2.556-.339.911-.508 2.07-.508 3.473 0 1.13.17 2.092.508 2.885.64 1.512 1.81 2.27 3.512 2.27 1.152 0 2.11-.481 2.874-1.443zm6.518-17.056h2.461v7.492c.583-.738 1.108-1.257 1.573-1.558.793-.52 1.782-.78 2.966-.78 2.124 0 3.564.744 4.32 2.229.41.812.616 1.937.616 3.377v9.393h-2.53v-9.229c0-1.075-.136-1.864-.41-2.365-.446-.802-1.285-1.203-2.515-1.203-1.02 0-1.946.35-2.775 1.052s-1.245 2.029-1.245 3.979v7.766h-2.46v-20.153zm23.42 11.291c.566-.073.944-.31 1.135-.71.11-.22.164-.535.164-.947 0-.84-.298-1.452-.893-1.832s-1.449-.57-2.559-.57c-1.282 0-2.192.35-2.728 1.045-.3.384-.497.958-.587 1.717h-2.297c.046-1.81.63-3.069 1.755-3.777s2.428-1.062 3.912-1.062c1.72 0 3.118.328 4.192.984 1.066.656 1.598 1.677 1.598 3.062v8.437c0 .255.053.46.157.614.105.155.326.233.663.233.11 0 .233-.007.37-.02s.281-.035.437-.062v1.818c-.383.11-.675.178-.875.205s-.474.041-.82.041c-.848 0-1.463-.3-1.846-.902-.2-.319-.342-.77-.424-1.354-.501.656-1.222 1.227-2.16 1.71-.939.483-1.974.724-3.104.724-1.358 0-2.468-.412-3.329-1.236-.861-.824-1.292-1.855-1.292-3.093 0-1.356.424-2.408 1.272-3.154.847-.747 1.96-1.207 3.336-1.38l3.923-.49zm-5.181 6.649c.52.409 1.135.613 1.845.613.867 0 1.705-.2 2.516-.6 1.367-.665 2.05-1.753 2.05-3.263v-1.979c-.299.192-.686.352-1.158.48-.474.128-.938.22-1.393.274l-1.486.19c-.892.12-1.563.306-2.012.56-.76.428-1.142 1.11-1.142 2.046 0 .71.26 1.268.78 1.679zm12.974-12.43h2.338v2.53c.192-.493.661-1.093 1.408-1.799s1.609-1.06 2.584-1.06c.046 0 .123.006.233.015s.296.027.56.054v2.598a3.706 3.706 0 00-.806-.068c-1.24 0-2.193.398-2.858 1.196s-.998 1.716-.998 2.755v8.422h-2.46v-14.643zm9.256 0h2.434v2.078c.583-.72 1.112-1.244 1.586-1.572.811-.556 1.731-.834 2.761-.834 1.167 0 2.106.287 2.817.861.401.328.765.812 1.094 1.45.546-.785 1.19-1.366 1.927-1.744s1.568-.567 2.489-.567c1.968 0 3.308.71 4.02 2.133.382.765.573 1.796.573 3.09v9.748h-2.556v-10.172c0-.976-.244-1.646-.732-2.01s-1.082-.547-1.784-.547c-.966 0-1.798.323-2.495.97s-1.046 1.728-1.046 3.241v8.518h-2.502v-9.557c0-.993-.118-1.718-.355-2.174-.374-.684-1.072-1.025-2.092-1.025-.93 0-1.776.36-2.536 1.08s-1.142 2.023-1.142 3.91v7.766h-2.46v-14.643zm31.172 5.781c.566-.073.943-.31 1.135-.71.11-.22.164-.535.164-.947 0-.84-.298-1.452-.894-1.832s-1.448-.57-2.558-.57c-1.282 0-2.193.35-2.729 1.045-.3.384-.496.958-.587 1.717h-2.297c.046-1.81.631-3.069 1.755-3.777s2.43-1.062 3.912-1.062c1.721 0 3.119.328 4.193.984 1.065.656 1.597 1.677 1.597 3.062v8.437c0 .255.053.46.158.614.104.155.326.233.663.233.11 0 .232-.007.369-.02s.282-.035.437-.062v1.818c-.382.11-.674.178-.875.205s-.473.041-.82.041c-.848 0-1.463-.3-1.846-.902-.2-.319-.341-.77-.423-1.354-.501.656-1.222 1.227-2.16 1.71-.939.483-1.974.724-3.104.724-1.358 0-2.468-.412-3.33-1.236-.86-.824-1.291-1.855-1.291-3.093 0-1.356.424-2.408 1.271-3.154.848-.747 1.96-1.207 3.336-1.38l3.924-.49zm-5.182 6.649c.52.409 1.135.613 1.846.613.866 0 1.704-.2 2.516-.6 1.367-.665 2.05-1.753 2.05-3.263v-1.979c-.3.192-.686.352-1.159.48s-.937.22-1.392.274l-1.487.19c-.891.12-1.562.306-2.011.56-.761.428-1.142 1.11-1.142 2.046 0 .71.26 1.268.78 1.679z"/><path id="Shape" d="M393.455 155.848c-7.675-9.705-14.213 6.822-20.064 10.464 7.013-41.873-27.5-32.923-33.962-12.401-7.785 1.917-10.365-10.596-16.888-14.41-5.846-4.19-11.407 1.908-15.17 2.778-22.078-13.493-22.128 15.375-34.397 17.87-7.194-.594-5.626-10.404-9.043-15.827-1.568-3.416-9.192-3.633-10.78 1.127-.451 3.134 0 6.208.225 10.011-6.413.478-12.605 5.197-20.415 2.375-6.894-5.766-8.867-16.059-7.755-25.236 12.334 1.258 33.11-1.806 21.497-13.02-5.13-2.178-17.31-.458-22.269-.93 1.218-9.464-.666-20.658-12.229-15.803-2.079 3.622-.6 11.184-.891 16.19-7.595-.161-12.695 7.285-6.734 11.571 1.884 2.571 6.909.201 7.124 3.411-.796 22.418 12.024 24.914-12.96 29.829-13.316 1.122-11.172-23.198-32.564-2.968 6.202-11.345 15.25-22.554 11.588-36.973-4.554-9.418-15.475-14.087-22.76-6.037-5.565 7.25-5.07 16.838-6.197 24.41-1.648 6.5 1.954 12.195-.476 14.384-24.838 15.832-28.926-10.475-19.267-11.904 2.805.755 3.316 4.765 5.811 6.475 3.858 3.285 10.66-1.982 9.428-6.676-7.624-22.64-28.325-14.474-34.011 3.96-1.919 3.748-4.82 6.952-9.343 8.115-.652-7.456-4.424-11.044-10.446-12.92-1.733-4.221-7.55-3.522-12.023-2.833-12.67 2.853-16.638 12.135-21.933 21.256-9.604 15.41-20.35 5.534-13.672-6.339 7.75-12.658 12.129-42.93 3.918-49.107-44.087-33.205-26.963 118.922 17.88 66.605 14.994 10.907 24.302 5.846 32.94-3.496 5.134-.171 8.22.558 12.178-2.134 6.448-4.387 7.094 1.615 11.342 4 6.513 3.783 22.544 4.528 28.736-.292.687-.77.972-.025 1.478 1.228-.035 12.447 11.337 9.056 17.705 4.628 7.074-4 8.972-15.39 12.524-7.043 8.858 12.185 32.128 7.813 39.703-1.197 3.397-3.577 5.846 2.671 10.395 2.45 10.205 2.299 18.877-1.565 27.64-3.366 16.532 13.9 28.615.392 36.4-13.413 4.97-6.937 2.911 10.183 6.163 11.29 11.828 7.904 10.911-9.182 15.15-13.584 9.473 14.857 11.387 14.52 25.855 15.888 2.42 2.893 4.564 3.788 9.078 4.528 5.7 2.012 10.02-4.689 10.956 2.012 1.117 3.94-6.342 5.947-7.65 9.56-16.567 42.899 38.185 41.646 24.097-1.233.797-7.773 20.596-17.096 14.088-27.273zm-355.476-16.94a26.259 26.259 0 01-1.472 7.642c-3.142-2.228-2.445-32.58.771-31.388.536 7.17 1.308 14.61.701 23.746zm46.376 25.155c-19.758 2.757-8.927-13.694-5.45-9.166.59 3.904 2.42 6.691 5.45 9.161v.005zm78.338-17.538c-.395.312-.095.146-.771.388-1.784-5.353-.185-15.511 1.543-19.375 4.89 1.962 1.187 16.824-.772 18.987zm197.587 10.44c-1.002 1.826-2.545 3.25-5.751 3.426-10.28-1.384 12.715-17.634 5.751-3.426zm7.715 47.29c-6.262.026-3.111-14.05 0-14.73-.255 4.06 2.876 10.294-.01 14.706l.01.025z" fill="#232a33" fill-rule="evenodd" stroke-width="0"/><path id="Path" d="M274.998 47.767c1.934-7.28 4.098-14.69 8.592-20.94 4.494-6.248 11.793-11.259 19.724-11.259a14.364 14.364 0 017.244 1.756c4.509 2.631 6.332 7.909 7.39 12.84 4.192 19.484 3.932 64.965-23.311 71.777-30.86 7.707-23.371-40.153-19.639-54.174z" stroke-width="0" fill="#b59dcb"/><path id="Shape-2" data-name="Shape" class="cls-3" d="M337.55 32.447c-.275-5.77-2.69-10.977-8.196-13.13l-.05-.03-.135-.051c-.135-.05-.245-.12-.386-.166l-.125-.03c-5.826-2.375-12.023-2.662-17.93-.232-6.443 2.647-11.603 7.622-15.8 13.08-10.106 13.162-15.997 29.99-18.567 46.286-1.333 8.452-1.829 17.105-.346 25.583-3.206 4.487-6.463 8.945-9.834 13.312-1.688 2.193 1.363 5.302 3.076 3.084 3.407-4.423 6.708-8.925 9.96-13.458a2.28 2.28 0 00.816-.252 149.706 149.706 0 0024.282-16.13 154.262 154.262 0 0010.521-9.347c3.111-3.054 6.433-6.223 8.953-9.795a85.66 85.66 0 009.909-19.229c2.28-6.122 4.173-12.884 3.853-19.495zm-13.47-10.394a693.896 693.896 0 01-9.74 19.204c-.977-6.038-1.813-12.075-2.685-18.087a19.113 19.113 0 0112.424-1.117zm-16.453 3.381c1.032 7.205 2.004 14.419 3.296 21.578.025.134.068.264.126.388a623.388 623.388 0 01-7.435 13.317c-1.954-8.025-5.01-15.793-6.668-23.903a2.271 2.271 0 00-.155-.503 42.749 42.749 0 0110.836-10.877zm-21.993 33.708a103.765 103.765 0 017.91-17.765c2.11 8.357 5.296 16.452 6.829 24.899a543.06 543.06 0 01-18.917 29.788c-.586.856-1.198 1.686-1.789 2.516-1.352-13.181 1.699-27.137 5.967-39.428v-.01zm17.194 26.785a144.892 144.892 0 01-18.036 12.794 525.095 525.095 0 0012.024-18.293c4.804-.382 9.549-1.308 14.323-2.012a141.926 141.926 0 01-8.311 7.52v-.01zm17.499-17.433a42.476 42.476 0 01-4.163 4.94c-5.511.504-10.952 1.681-16.447 2.34a576.915 576.915 0 009.759-16.602c5.716-.448 11.407-1.157 17.118-1.655a73.924 73.924 0 01-6.267 10.988v-.01zm9.048-17.422c-.246.65-.537 1.293-.797 1.947h-.14c-5.461.423-10.902 1.092-16.357 1.59a577.223 577.223 0 005.315-9.8 644.102 644.102 0 0010.791-21.277c3.873 1.656 5.01 5.877 5.05 9.876.055 6.043-1.738 12.075-3.862 17.674v-.01z"/></svg>