<?xml version="1.0" encoding="UTF-8"?>
<svg width="177px" height="30px" viewBox="0 0 177 30" version="1.1" xmlns="http://www.w3.org/2000/svg" xmlns:xlink="http://www.w3.org/1999/xlink">
    <title>Page 1</title>
    <defs>
        <polygon id="path-1" points="3.85095047 0.283245513 0.485158675 0.283245513 0.485158675 23.0021106 3.85095047 23.0021106 3.85095047 0.283245513"></polygon>
        <polygon id="path-3" points="0 0.366707778 0 23.0868044 3.19538044 23.0868044 3.19538044 0.366707778 0 0.366707778"></polygon>
        <polygon id="path-5" points="0 29.9446484 176.721937 29.9446484 176.721937 0.559885696 0 0.559885696"></polygon>
    </defs>
    <g id="01-HOME" stroke="none" stroke-width="1" fill="none" fill-rule="evenodd">
        <g id="1440px_home_dropdown-platform" transform="translate(-95.000000, -26.000000)">
            <g id="Page-1" transform="translate(95.000000, 26.000000)">
                <g id="Group-3" transform="translate(5.025237, 0.276640)">
                    <mask id="mask-2" fill="white">
                        <use xlink:href="#path-1"></use>
                    </mask>
                    <g id="Clip-2"></g>
                    <path d="M0.485158675,0.899444447 C0.485158675,0.574775677 0.776064038,0.283133558 1.09991262,0.283133558 L3.23619653,0.283133558 C3.56004511,0.283133558 3.85095047,0.574775677 3.85095047,0.899444447 L3.85095047,22.3852399 C3.85095047,22.7099087 3.56004511,23.0021106 3.23619653,23.0021106 L1.09991262,23.0021106 C0.776064038,23.0021106 0.485158675,22.7099087 0.485158675,22.3852399 L0.485158675,0.899444447 Z" id="Fill-1" fill="#2ABBEA" mask="url(#mask-2)"></path>
                </g>
                <path d="M33.2431126,22.5636398 L29.2670338,1.04929588 C29.202264,0.794598825 28.9431852,0.57236865 28.6846647,0.57236865 L28.1665069,0.57236865 C27.9398129,0.57236865 27.6807341,0.731344392 27.6159644,0.922227238 L20.881589,17.174698 L20.7526079,17.174698 L18.5292199,11.8450922 C18.4761757,11.7180236 18.3025259,11.714665 18.2394312,11.8366956 C17.8407625,12.6114225 17.3030621,13.3044224 16.6615069,13.8854675 C16.4867404,14.0433237 16.422529,14.2896242 16.5124249,14.5073762 L19.9781631,22.9280525 C20.0423744,23.1189354 20.2701852,23.2779111 20.5281473,23.2779111 L21.1110748,23.2779111 C21.4019801,23.2779111 21.5968476,23.1189354 21.6616174,22.9280525 L27.4540401,8.49204754 L27.551753,8.49204754 L29.9415322,22.8496842 C30.0063019,23.0724742 30.2653808,23.2947043 30.5562861,23.2947043 L32.6613019,23.2947043 C33.1141315,23.2947043 33.3402672,23.00866 33.2431126,22.5636398" id="Fill-4" fill="#2ABBEA"></path>
                <g id="Group-8" transform="translate(0.000000, 0.276640)">
                    <mask id="mask-4" fill="white">
                        <use xlink:href="#path-3"></use>
                    </mask>
                    <g id="Clip-7"></g>
                    <path d="M2.57895142,0.366707778 L0.614642271,0.366707778 C0.257850473,0.366707778 -0.000111671924,0.658349897 -0.000111671924,0.983018666 L-0.000111671924,2.95006359 L-0.000111671924,20.5034486 L-0.000111671924,22.4688142 L-0.000111671924,22.4688142 C-0.000111671924,22.8102761 0.276276341,23.0868044 0.61631735,23.0868044 L2.5806265,23.0868044 C2.9374183,23.0868044 3.19538044,22.7951623 3.19538044,22.4704935 L3.19538044,22.1452649 L3.19538044,20.5034486 L3.19538044,2.95006359 L3.19538044,0.984697988 C3.19538044,0.643236006 2.91955079,0.366707778 2.57895142,0.366707778" id="Fill-6" fill="#2ABBEA" mask="url(#mask-4)"></path>
                </g>
                <path d="M15.6215063,3.4960669 C15.6175978,3.49046916 15.6136893,3.4854312 15.6092224,3.47983346 C15.4562319,3.28223333 15.2948659,3.09135048 15.1223328,2.91054357 C15.0514211,2.83497411 14.9760426,2.76500239 14.9023391,2.69279158 C14.8331025,2.62561873 14.7627492,2.5601252 14.6907208,2.49575122 C14.6092003,2.42186109 14.5338218,2.34125367 14.4489511,2.27128195 C13.4941562,1.47976188 12.3389101,0.928384749 11.0786924,0.713431633 C10.9223517,0.686562493 10.77997,0.772767649 10.7118502,0.904314478 C10.6861656,0.950215925 10.6682981,1.00059556 10.6682981,1.05825226 L10.6682981,1.07112705 L10.6682981,2.83553388 L10.6682981,3.65000468 C10.6682981,3.81177929 10.7766199,3.94892386 10.9301688,3.99930349 C11.8285694,4.29374448 12.597989,4.89270238 13.1100047,5.68366268 C13.5142571,6.30837017 13.7526767,7.0539888 13.7683107,7.86510095 C13.7526767,8.6762131 13.5142571,9.42183172 13.1100047,10.0465392 C12.597989,10.8374995 11.8285694,11.4364574 10.9301688,11.7308984 C10.7766199,11.781278 10.6682981,11.9184226 10.6682981,12.0801972 L10.6682981,14.6590748 C10.6682981,14.8785061 10.8631656,15.0537153 11.0786924,15.0167703 C12.3389101,14.8018171 13.4941562,14.25044 14.4489511,13.4589199 C15.3149669,12.74129 16.0162666,11.8266197 16.4808218,10.7820819 C16.8253297,10.0062355 17.0302476,9.15649897 17.0849669,8.26701849 C17.0939006,8.11699913 17.108418,7.96809931 17.108418,7.81584086 C17.108418,6.19977407 16.5511751,4.70181954 15.6215063,3.4960669" id="Fill-9" fill="#2ABBEA"></path>
                <path d="M67.4095287,14.7430409 C67.4095287,13.3452859 67.2018189,12.4524468 66.6674688,11.8277393 C66.1040839,11.1733638 65.2135003,10.9354599 64.4424057,10.9354599 C62.7511344,10.9354599 61.0001186,12.0359751 59.9906044,13.2260541 C60.0207558,13.5529619 60.0207558,13.9100976 60.0207558,14.2672332 L60.0207558,23.3999418 L57.3501218,23.3999418 L57.3501218,14.7430409 C57.3501218,13.166718 57.172005,12.4524468 56.6678063,11.8574073 C56.07427,11.1733638 55.273024,10.9354599 54.4421849,10.9354599 C52.7213205,10.9354599 51.0004562,12.0063071 49.990942,13.2260541 L49.990942,23.3999418 L47.3203079,23.3999418 L47.3203079,8.7635378 L49.990942,8.7635378 L49.990942,10.5486563 L50.0506864,10.5783243 C51.2673521,9.35857729 52.9882164,8.43662994 55.0061281,8.43662994 C56.81633,8.43662994 58.5969388,9.21023725 59.4864057,10.9651279 C61.2374215,9.29924127 63.0180303,8.43662994 65.0353836,8.43662994 C66.6082826,8.43662994 67.9729136,8.97177363 68.8634972,9.98328478 C69.7535224,10.9651279 70.0801628,12.2738789 70.0801628,14.2672332 L70.0801628,23.3999418 L67.4095287,23.3999418 L67.4095287,14.7430409 Z" id="Fill-11" fill="#515665"></path>
                <path d="M78.5062003,14.7430409 L87.1121972,14.7430409 C86.874336,11.8277393 84.7380521,10.8458961 82.9870363,10.8458961 C81.0579038,10.8458961 78.9813644,12.0359751 78.5062003,14.7430409 L78.5062003,14.7430409 Z M78.4470142,16.855627 C78.8328407,19.7407009 80.969683,21.3175835 83.8474685,21.3175835 C85.8653801,21.3175835 87.5566514,20.5143082 88.8922476,19.502797 L88.8922476,22.3587626 C87.5862445,23.191706 85.5688912,23.7274094 83.6699101,23.7274094 C79.1589227,23.7274094 75.7763801,20.692876 75.7763801,16.0820197 C75.7763801,11.4706036 79.129888,8.43662994 83.0462224,8.43662994 C86.6068817,8.43662994 89.6929353,10.9354599 89.6929353,15.5166482 C89.6929353,15.9627879 89.6639006,16.4979316 89.6041562,16.855627 L78.4470142,16.855627 Z" id="Fill-13" fill="#515665"></path>
                <path d="M102.125929,21.3473635 C103.579897,21.3473635 104.885342,20.8122198 105.923891,20.0979485 L105.923891,11.7382874 C104.945087,11.2328117 103.639084,10.8163401 102.333639,10.8163401 C99.2481435,10.8163401 97.319011,13.16683 97.319011,16.1711357 C97.319011,19.0864373 99.1286546,21.3473635 102.125929,21.3473635 M102.363232,8.43674189 C103.8172,8.43674189 104.915494,8.79331776 105.864705,9.2103492 L105.923891,9.18012142 L105.923891,0.672120331 L108.595084,0.672120331 L108.595084,23.4000538 L105.923891,23.4000538 L105.923891,22.5072146 L105.864705,22.4775466 C104.885342,23.1621499 103.520711,23.7275214 101.769696,23.7275214 C97.8232098,23.7275214 94.6187839,20.8418878 94.6187839,16.3200355 C94.6187839,11.8278512 97.7640237,8.43674189 102.363232,8.43674189" id="Fill-15" fill="#515665"></path>
                <mask id="mask-6" fill="white">
                    <use xlink:href="#path-5"></use>
                </mask>
                <g id="Clip-18"></g>
                <path d="M115.359331,23.4003336 L118.029965,23.4003336 L118.029965,8.76392964 L115.359331,8.76392964 L115.359331,23.4003336 Z M116.694927,1.86191942 C117.732918,1.86191942 118.563757,2.69486274 118.563757,3.7360419 C118.563757,4.77778083 117.732918,5.61016439 116.694927,5.61016439 C115.65582,5.61016439 114.824981,4.77778083 114.824981,3.7360419 C114.824981,2.69486274 115.65582,1.86191942 116.694927,1.86191942 L116.694927,1.86191942 Z" id="Fill-17" fill="#515665" mask="url(#mask-6)"></path>
                <path d="M131.174923,21.3770315 C134.08286,21.3770315 136.041027,19.2353371 136.041027,16.2304717 C136.041027,13.255834 134.142046,10.8460081 131.234109,10.8460081 C129.928665,10.8460081 128.503731,11.3223755 127.465182,12.1844271 L127.465182,20.3655203 C128.385359,20.8715558 129.750548,21.3770315 131.174923,21.3770315 L131.174923,21.3770315 Z M127.465182,29.9443686 L124.795106,29.9443686 L124.795106,8.76364976 L127.465182,8.76364976 L127.465182,9.71582489 L127.524926,9.7454929 C128.533882,9.0312216 129.957699,8.43674189 131.679122,8.43674189 C135.596015,8.43674189 138.741255,11.5003836 138.741255,16.0222359 C138.741255,20.722656 135.329119,23.7269616 131.115179,23.7269616 C129.66121,23.7269616 128.444545,23.3703858 127.524926,22.9242461 L127.465182,22.9539141 L127.465182,29.9443686 Z" id="Fill-19" fill="#2ABBEA" mask="url(#mask-6)"></path>
                <path d="M144.526921,23.4003336 L147.197555,23.4003336 L147.197555,8.76392964 L144.526921,8.76392964 L144.526921,23.4003336 Z M145.861959,1.86191942 C146.900508,1.86191942 147.731347,2.69486274 147.731347,3.7360419 C147.731347,4.77778083 146.900508,5.61016439 145.861959,5.61016439 C144.82341,5.61016439 143.992571,4.77778083 143.992571,3.7360419 C143.992571,2.69486274 144.82341,1.86191942 145.861959,1.86191942 L145.861959,1.86191942 Z" id="Fill-20" fill="#2ABBEA" mask="url(#mask-6)"></path>
                <path d="M174.051303,14.7430409 C174.051303,13.3452859 173.843593,12.4524468 173.309243,11.8277393 C172.745858,11.1733638 171.855274,10.9354599 171.08418,10.9354599 C169.392909,10.9354599 167.641893,12.0359751 166.632379,13.2260541 C166.66253,13.5529619 166.66253,13.9100976 166.66253,14.2672332 L166.66253,23.3999418 L163.991896,23.3999418 L163.991896,14.7430409 C163.991896,13.166718 163.813779,12.4524468 163.30958,11.8574073 C162.716044,11.1733638 161.914798,10.9354599 161.083959,10.9354599 C159.363095,10.9354599 157.64223,12.0063071 156.632716,13.2260541 L156.632716,23.3999418 L153.962082,23.3999418 L153.962082,8.7635378 L156.632716,8.7635378 L156.632716,10.5486563 L156.692461,10.5783243 C157.909126,9.35857729 159.629991,8.43662994 161.647902,8.43662994 C163.458104,8.43662994 165.238713,9.21023725 166.12818,10.9651279 C167.879196,9.29924127 169.659804,8.43662994 171.677158,8.43662994 C173.250057,8.43662994 174.614688,8.97177363 175.505271,9.98328478 C176.395297,10.9651279 176.721937,12.2738789 176.721937,14.2672332 L176.721937,23.3999418 L174.051303,23.3999418 L174.051303,14.7430409 Z" id="Fill-21" fill="#2ABBEA" mask="url(#mask-6)"></path>
            </g>
        </g>
    </g>
</svg>