<?xml version="1.0" encoding="UTF-8"?>
<svg width="213" height="47" xmlns="http://www.w3.org/2000/svg" viewBox="0 0 213 47" fill="none">
  <path d="M22.9869 11.3643H26.6814V46.6849H22.9869V11.3643ZM7.65813 46.6849H11.3588V11.3643H7.65813V46.6849ZM15.3225 35.3269H19.0232V0H15.3225V35.3269ZM0 35.3269H3.69444V0H0V35.3269ZM61.7159 27.7529V12.0847H56.6814L51.4904 23.3049L46.4372 12.0847H41.3652V27.7529H45.1348V17.1153L49.806 27.7529H53.0809L57.9401 17.297V27.7529H61.7096H61.7159ZM70.6514 27.7529H84.5588V24.4576H74.5775V21.0872H83.463V17.8984H74.5775V15.2484H84.5588V12.0784H70.6514V27.7466V27.7529ZM108.353 15.8185C108.98 17.0025 109.293 18.3683 109.293 19.9219C109.293 21.4756 108.98 22.8288 108.353 24.0128C107.721 25.1968 106.832 26.099 105.673 26.738C105.01 27.1076 104.252 27.3707 103.407 27.5211C102.568 27.6777 101.296 27.7529 99.5995 27.7529H92.5237V12.0847H99.5995C101.296 12.0847 102.561 12.1661 103.407 12.3228C104.252 12.4794 105.003 12.7425 105.673 13.1121C106.832 13.7386 107.721 14.647 108.353 15.8248V15.8185ZM105.179 19.8593C105.179 18.3369 104.715 17.1842 103.789 16.4011C102.856 15.618 101.497 15.2233 99.6935 15.2233H96.6565V24.4952H99.6935C101.484 24.4952 102.849 24.1005 103.782 23.3174C104.715 22.528 105.179 21.3753 105.179 19.8593ZM117.414 27.7529H121.34V12.0847H117.414V27.7529ZM137.715 27.7529V15.2484H143.075V12.0784H128.46V15.2484H133.82V27.7529H137.715ZM164.052 24.4576H154.077V21.0872H162.962V17.8984H154.077V15.2484H164.052V12.0784H150.144V27.7466H164.052V24.4513V24.4576ZM189.594 21.6823H185.292C185.166 22.7035 184.684 23.5054 183.851 24.0754C183.019 24.6455 181.929 24.9337 180.564 24.9337C178.992 24.9337 177.753 24.4889 176.851 23.5931C175.949 22.7035 175.492 21.4756 175.492 19.9219C175.492 18.3683 175.943 17.1278 176.851 16.232C177.759 15.3361 178.999 14.8851 180.564 14.8851C181.848 14.8851 182.881 15.1294 183.67 15.618C184.453 16.1067 184.985 16.8271 185.242 17.7919H189.525C189.318 15.9626 188.398 14.4841 186.763 13.3565C185.129 12.2288 183.063 11.665 180.564 11.665C177.709 11.665 175.423 12.4167 173.726 13.914C172.023 15.4113 171.171 17.4097 171.171 19.9219C171.171 22.4341 172.023 24.4325 173.726 25.9235C175.429 27.4146 177.709 28.1601 180.564 28.1601C183.1 28.1601 185.185 27.5712 186.82 26.3871C188.454 25.2094 189.374 23.6369 189.587 21.6698L189.594 21.6823ZM213 27.7529V12.0847H209.093V17.9673H201.572V12.0847H197.64V27.7529H201.572V21.25H209.093V27.7529H213ZM44.7966 36.7428C44.7966 37.6386 44.2581 38.0458 43.1686 38.0458H41.8098V39.8564H41.3714V35.4397H43.1686C44.2581 35.4397 44.7966 35.8469 44.7966 36.7428ZM44.3333 36.7365C44.3333 36.0349 43.945 35.8469 43.0934 35.8469H41.816V37.6136H43.0934C43.9513 37.6136 44.3333 37.4382 44.3333 36.7302V36.7365ZM50.4134 37.2815H47.5393V35.4397H47.101V39.8564H47.5393V37.7013H50.4134V39.8564H50.8517V35.4397H50.4134V37.2815ZM55.498 35.4397L57.508 39.8564H57.0634L56.4435 38.4906H54.0265L53.4003 39.8564H52.9494L54.9845 35.4397H55.4917H55.498ZM56.2494 38.0646L55.2412 35.8031L54.2268 38.0646H56.2494ZM63.225 38.5658C63.2939 39.1547 63.2563 39.5995 63.4379 39.8564H62.9244C62.7867 39.4491 62.8242 39.0106 62.7741 38.5658C62.7178 38.1148 62.461 37.9581 61.91 37.9581H60.0503V39.8564H59.6119V35.4397H61.7284C62.7804 35.4397 63.3126 35.8344 63.3126 36.6237C63.3126 37.2064 63.081 37.5447 62.5487 37.7263C63.0497 37.8078 63.1686 38.0396 63.225 38.5658ZM62.8681 36.6989C62.8681 36.0474 62.4736 35.8532 61.6282 35.8532H60.0565V37.5509H61.6846C62.4986 37.5509 62.8743 37.3254 62.8743 36.6989H62.8681ZM68.3408 39.4491L66.4748 35.4397H65.7735V39.8564H66.2056L66.1617 35.8156L68.0841 39.8564H68.5913L70.4636 35.8156L70.4448 39.8564H70.8768V35.4397H70.2319L68.3408 39.4491ZM75.5293 35.4397L77.5394 39.8564H77.0948L76.4749 38.4906H74.0578L73.4316 39.8564H72.9808L75.0159 35.4397H75.5231H75.5293ZM76.2807 38.0646L75.2726 35.8031L74.2582 38.0646H76.2807ZM81.5406 39.5431C80.4699 39.5431 79.7623 38.8227 79.7623 37.6512C79.7623 36.4797 80.4699 35.7529 81.6283 35.7529C82.4924 35.7529 83.0622 36.1601 83.2376 36.8869H83.6821C83.5444 35.9221 82.7804 35.3269 81.6345 35.3269C80.1881 35.3269 79.3177 36.2165 79.3177 37.6512C79.3177 39.0858 80.2069 39.9754 81.5594 39.9754C82.7116 39.9754 83.5569 39.2925 83.7573 38.2025H83.2877C83.1123 39.0294 82.4298 39.5431 81.5469 39.5431H81.5406ZM87.6834 37.5948L86.1242 35.4397H85.5607L87.4642 37.9456V39.8564H87.9026V37.9456L89.8061 35.4397H89.2614L87.6834 37.5948ZM98.0153 39.4491L96.1493 35.4397H95.448V39.8564H95.8801L95.8362 35.8156L97.7586 39.8564H98.2658L100.138 35.8156L100.119 39.8564H100.551V35.4397H99.9064L98.0153 39.4491ZM105.198 35.4397L107.208 39.8564H106.763L106.143 38.4906H103.726L103.1 39.8564H102.649L104.684 35.4397H105.191H105.198ZM105.949 38.0646L104.941 35.8031L103.926 38.0646H105.949ZM112.968 39.4053L109.881 35.4397H109.318V39.8564H109.744V35.8908L112.806 39.8564H113.394V35.4397H112.968V39.4053ZM118.04 35.4397L120.05 39.8564H119.606L118.986 38.4906H116.569L115.943 39.8564H115.492L117.527 35.4397H118.034H118.04ZM118.792 38.0646L117.784 35.8031L116.769 38.0646H118.792ZM124.365 37.9581H125.755V38.1774C125.755 38.9041 125.054 39.5494 124.089 39.5494C122.993 39.5494 122.273 38.8289 122.273 37.6512C122.273 36.4734 122.981 35.7655 124.121 35.7655C124.991 35.7655 125.523 36.1414 125.661 36.8555H126.124C126.037 35.9409 125.26 35.3332 124.146 35.3332C122.693 35.3332 121.829 36.2228 121.829 37.6574C121.829 39.0921 122.718 39.9816 124.083 39.9816C124.903 39.9816 125.498 39.6496 125.792 39.067L125.843 39.8689H126.199V37.5822H124.365V37.9707V37.9581ZM128.648 39.8564H132.042V39.4429H129.086V37.814H131.816V37.4006H129.086V35.8532H132.042V35.446H128.648V39.8626V39.8564ZM136.951 39.4491L135.085 35.4397H134.384V39.8564H134.816L134.772 35.8156L136.694 39.8564H137.201L139.074 35.8156L139.055 39.8564H139.487V35.4397H138.836L136.945 39.4491H136.951ZM142.061 39.8564H145.454V39.4429H142.499V37.814H145.229V37.4006H142.499V35.8532H145.454V35.446H142.061V39.8626V39.8564ZM151.441 39.4053L148.354 35.4397H147.79V39.8564H148.216V35.8908L151.278 39.8564H151.866V35.4397H151.441V39.4053ZM153.933 35.8469H155.636V39.8626H156.074V35.8469H157.778V35.446H153.927V35.8469H153.933ZM165.705 37.482L164.866 37.3317C164.127 37.2064 163.764 37.0435 163.764 36.5799C163.764 36.0724 164.221 35.7279 165.004 35.7279C165.786 35.7279 166.231 36.0662 166.287 36.6801H166.726C166.701 35.8344 166.062 35.3207 164.985 35.3207C163.908 35.3207 163.3 35.8406 163.3 36.5987C163.3 37.2126 163.645 37.576 164.346 37.7013L165.285 37.8642C166.031 37.9957 166.387 38.1273 166.387 38.6285C166.387 39.1672 165.88 39.5368 165.022 39.5368C164.165 39.5368 163.62 39.0921 163.62 38.4217V38.3967H163.175V38.4656C163.175 39.3802 163.876 39.9691 165.066 39.9691C166.256 39.9691 166.857 39.4554 166.857 38.6097C166.857 37.9519 166.5 37.6136 165.699 37.4695L165.705 37.482ZM173.707 37.6512C173.707 39.0921 172.831 39.9754 171.384 39.9754C169.938 39.9754 169.067 39.0858 169.067 37.6512C169.067 36.2165 169.938 35.3269 171.384 35.3269C172.831 35.3269 173.707 36.2165 173.707 37.6512ZM173.25 37.6512C173.25 36.4671 172.549 35.7529 171.378 35.7529C170.207 35.7529 169.506 36.4609 169.506 37.6512C169.506 38.8415 170.207 39.5494 171.378 39.5494C172.549 39.5494 173.25 38.8352 173.25 37.6512ZM176.5 35.4397H176.062V39.8564H179.28V39.4429H176.506V35.4397H176.5ZM184.559 38.1523C184.559 39.1046 184.108 39.5494 183.081 39.5494C182.054 39.5494 181.61 39.1108 181.61 38.1523V35.4397H181.165V38.2463C181.165 39.374 181.829 39.9691 183.088 39.9691C184.346 39.9691 185.016 39.3552 185.016 38.2588V35.4334H184.572V38.1461L184.559 38.1523ZM187.07 35.8469H188.78V39.8626H189.218V35.8469H190.921V35.446H187.07V35.8469ZM193.012 39.8564H193.451V35.4397H193.012V39.8564ZM200.476 37.6512C200.476 39.0921 199.6 39.9754 198.153 39.9754C196.707 39.9754 195.837 39.0858 195.837 37.6512C195.837 36.2165 196.707 35.3269 198.153 35.3269C199.6 35.3269 200.476 36.2165 200.476 37.6512ZM200.026 37.6512C200.026 36.4671 199.324 35.7529 198.153 35.7529C196.982 35.7529 196.281 36.4609 196.281 37.6512C196.281 38.8415 196.982 39.5494 198.153 39.5494C199.324 39.5494 200.026 38.8352 200.026 37.6512ZM206.482 39.4053L203.394 35.4397H202.831V39.8564H203.257V35.8908L206.319 39.8564H206.907V35.4397H206.482V39.4053ZM211.835 37.482L210.996 37.3317C210.257 37.2064 209.894 37.0435 209.894 36.5799C209.894 36.0724 210.351 35.7279 211.134 35.7279C211.917 35.7279 212.361 36.0662 212.418 36.6801H212.856C212.831 35.8344 212.198 35.3207 211.121 35.3207C210.044 35.3207 209.437 35.8406 209.437 36.5987C209.437 37.2126 209.781 37.576 210.483 37.7013L211.422 37.8642C212.167 37.9957 212.524 38.1273 212.524 38.6285C212.524 39.1672 212.017 39.5368 211.153 39.5368C210.289 39.5368 209.75 39.0921 209.75 38.4217V38.3967H209.306V38.4656C209.306 39.3802 210.007 39.9691 211.197 39.9691C212.386 39.9691 212.987 39.4554 212.987 38.6097C212.987 37.9519 212.631 37.6136 211.823 37.4695L211.835 37.482Z" fill="currentcolor"></path>
</svg>