<svg xmlns="http://www.w3.org/2000/svg" viewBox="0 0 455.56 41.89" width="455.56" height="41.89" fill="#1e3c8c">
    <path d="M61.09,19.29c0-9.22,5.77-16.06,14.86-16.06s14.81,6.84,14.81,16.06-5.72,16.02-14.81,16.02-14.86-6.81-14.86-16.02ZM84.39,19.29c0-6.16-2.76-10.94-8.4-10.94s-8.53,4.78-8.53,10.94,2.89,10.89,8.53,10.89,8.4-4.78,8.4-10.89Z" />
    <path d="M93.39,12.57h5.21c.12,0,.22.1.22.22v2.54h.13c1.42-1.94,3.49-3.36,6.5-3.36,5.86,0,9.6,4.78,9.6,11.67s-3.87,11.67-9.56,11.67c-3.1,0-5.12-1.25-6.37-3.15h-.08v9.51c0,.12-.1.22-.22.22h-5.43c-.12,0-.22-.1-.22-.22V12.79c0-.12.1-.22.22-.22h0ZM109.11,23.81c0-4.18-1.46-7.1-5.08-7.1s-5.12,3.15-5.12,7.1,1.85,6.63,5.34,6.63c2.97,0,4.87-2.46,4.87-6.63Z" />
    <path d="M131.89,12.57h5.43c.12,0,.22.1.22.22v21.66c0,.12-.1.22-.22.22h-5.43c-.12,0-.22-.1-.22-.22V12.79c0-.12.1-.22.22-.22h0Z" />
    <path d="M141.96,12.57h5.21c.12,0,.22.1.22.22v2.75h.13c1.21-2.02,3.36-3.57,6.41-3.57,2.8,0,5.04,1.55,6.12,3.87h.08c1.51-2.41,3.84-3.87,6.63-3.87,4.65,0,7.28,3.02,7.28,7.84v14.64c0,.12-.1.22-.22.22h-5.43c-.12,0-.22-.1-.22-.22v-13.65c0-2.49-1.25-3.79-3.4-3.79-2.46,0-3.96,1.89-3.96,4.82v12.61c0,.12-.1.22-.22.22h-5.42c-.12,0-.22-.1-.22-.22v-13.65c0-2.49-1.25-3.79-3.4-3.79-2.37,0-3.96,1.89-3.96,4.82v12.61c0,.12-.1.22-.22.22h-5.43c-.12,0-.22-.1-.22-.22V12.79c0-.12.1-.22.22-.22h.03Z" />
    <path d="M191.53,34.66c-.12,0-.22-.1-.22-.22v-2.37h-.13c-1.51,2.02-3.23,3.18-6.33,3.18-4.91,0-7.66-3.15-7.66-7.97v-14.51c0-.12.1-.22.22-.22h5.38c.12,0,.22.1.22.22v13.52c0,2.58,1.16,4,3.66,4,2.76,0,4.43-2.07,4.43-5v-12.53c0-.12.1-.22.22-.22h5.43c.12,0,.22.1.22.22v21.66c0,.12-.1.22-.22.22h-5.22Z" />
    <path d="M199.73,27.51h5.01c.1,0,.19.08.21.18.44,2.42,2.23,3.48,4.79,3.48s4.05-.99,4.05-2.54c0-2.11-2.8-2.33-5.81-2.93-3.96-.77-7.84-1.85-7.84-6.67s3.96-7.06,9-7.06c5.7,0,8.92,2.78,9.44,7.07.01.13-.09.24-.22.24h-4.87c-.11,0-.19-.08-.21-.19-.32-2.22-1.81-3.04-4.24-3.04-2.28,0-3.79.86-3.79,2.46,0,1.89,2.93,2.07,6.07,2.71,3.71.77,7.79,1.81,7.79,6.97,0,4.43-3.79,7.1-9.3,7.1-6.3,0-9.87-2.99-10.31-7.55-.01-.13.09-.24.22-.24h0Z" />
    <path d="M137.32,3.78h-5.42c-.12,0-.22.1-.22.22v5.42c0,.12.1.22.22.22h5.42c.12,0,.22-.1.22-.22v-5.42c0-.12-.1-.22-.22-.22Z" />
    <path d="M128.53,30.52h-3.68c-.37,0-.68-.3-.68-.68v-13.14h3.71c.12,0,.22-.1.22-.22v-3.71c0-.12-.1-.22-.22-.22h-3.71v-5.51c0-.12-.1-.22-.22-.22h-5.29c-.12,0-.22.1-.22.22v5.51h-1.85c-.12,0-.22.1-.22.22v3.71c0,.12.1.22.22.22h1.85v13.83c0,2.28,1.85,4.13,4.13,4.13h5.95c.12,0,.22-.1.22-.22v-3.71c0-.12-.1-.22-.22-.22h0Z" />
    <path d="M296.97,30.52h-3.68c-.37,0-.68-.3-.68-.68v-13.14h3.71c.12,0,.22-.1.22-.22v-3.71c0-.12-.1-.22-.22-.22h-3.71v-5.51c0-.12-.1-.22-.22-.22h-5.29c-.12,0-.22.1-.22.22v5.51h-1.85c-.12,0-.22.1-.22.22v3.71c0,.12.1.22.22.22h1.85v13.83c0,2.28,1.85,4.13,4.13,4.13h5.95c.12,0,.22-.1.22-.22v-3.71c0-.12-.1-.22-.22-.22h0Z" />
    <path d="M434.02,30.52h-3.68c-.37,0-.68-.3-.68-.68v-13.14h3.71c.12,0,.22-.1.22-.22v-3.71c0-.12-.1-.22-.22-.22h-3.71v-5.51c0-.12-.1-.22-.22-.22h-5.29c-.12,0-.22.1-.22.22v5.51h-1.85c-.12,0-.22.1-.22.22v3.71c0,.12.1.22.22.22h1.85v13.83c0,2.28,1.85,4.13,4.13,4.13h5.95c.12,0,.22-.1.22-.22v-3.71c0-.12-.1-.22-.22-.22h0Z" />
    <path d="M231.04,3.87h5.81c.12,0,.22.1.22.22v30.36c0,.12-.1.22-.22.22h-5.81c-.12,0-.22-.1-.22-.22V4.09c0-.12.1-.22.22-.22Z" />
    <path d="M247.13,15.58h.13c1.51-2.37,3.53-3.62,6.54-3.62,4.56,0,7.62,3.44,7.62,8.27v14.21c0,.12-.1.22-.22.22h-5.43c-.12,0-.22-.1-.22-.22v-13.35c0-2.37-1.38-4.05-3.84-4.05-2.58,0-4.48,2.07-4.48,5.08v12.31c0,.12-.1.22-.22.22h-5.43c-.12,0-.22-.1-.22-.22V12.79c0-.12.1-.22.22-.22h5.29c.12,0,.22.1.22.22v2.8h.03Z" />
    <path d="M264.05,27.51h5.01c.1,0,.19.08.21.18.45,2.42,2.23,3.48,4.8,3.48s4.05-.99,4.05-2.54c0-2.11-2.8-2.33-5.81-2.93-3.96-.77-7.84-1.85-7.84-6.67s3.96-7.06,9-7.06c5.7,0,8.92,2.78,9.44,7.07.01.13-.09.24-.22.24h-4.87c-.11,0-.19-.08-.21-.19-.32-2.22-1.81-3.04-4.24-3.04-2.28,0-3.79.86-3.79,2.46,0,1.89,2.93,2.07,6.07,2.71,3.71.77,7.79,1.81,7.79,6.97,0,4.43-3.79,7.1-9.3,7.1-6.3,0-9.86-2.99-10.31-7.55-.01-.13.09-.24.22-.24h0Z" />
    <path d="M312.84,17.38c0,.12-.11.21-.23.21-3.71-.28-6.36,1.75-6.36,6.3v10.55c0,.12-.1.22-.22.22h-5.43c-.12,0-.22-.1-.22-.22V12.79c0-.12.1-.22.22-.22h5.21c.12,0,.22.1.22.22v3.31h.13c1.33-2.49,2.84-3.79,5.43-3.79.55,0,.92.03,1.22.12.09.03.15.12.15.21l-.12,4.74h0Z" />
    <path d="M329.68,34.66c-.12,0-.22-.1-.22-.22v-2.37h-.13c-1.51,2.02-3.23,3.18-6.33,3.18-4.91,0-7.66-3.15-7.66-7.97v-14.51c0-.12.1-.22.22-.22h5.38c.12,0,.22.1.22.22v13.52c0,2.58,1.16,4,3.66,4,2.76,0,4.43-2.07,4.43-5v-12.53c0-.12.1-.22.22-.22h5.43c.12,0,.22.1.22.22v21.66c0,.12-.1.22-.22.22h-5.22Z" />
    <path d="M339.59,12.57h5.21c.12,0,.22.1.22.22v2.75h.13c1.21-2.02,3.36-3.57,6.41-3.57,2.8,0,5.04,1.55,6.12,3.87h.08c1.51-2.41,3.83-3.87,6.63-3.87,4.65,0,7.28,3.02,7.28,7.84v14.64c0,.12-.1.22-.22.22h-5.43c-.12,0-.22-.1-.22-.22v-13.65c0-2.49-1.25-3.79-3.4-3.79-2.46,0-3.96,1.89-3.96,4.82v12.61c0,.12-.1.22-.22.22h-5.43c-.12,0-.22-.1-.22-.22v-13.65c0-2.49-1.25-3.79-3.4-3.79-2.37,0-3.96,1.89-3.96,4.82v12.61c0,.12-.1.22-.22.22h-5.43c-.12,0-.22-.1-.22-.22V12.79c0-.12.1-.22.22-.22h.03Z" />
    <path d="M374.75,23.6c0-6.54,4.43-11.63,10.89-11.63,7.04,0,10.82,5.32,10.89,13.08,0,.12-.1.23-.22.23h-15.8c.43,3.4,2.33,5.51,5.64,5.51,2.22,0,3.54-.98,4.21-2.58.03-.08.11-.14.19-.14h5.35c.14,0,.24.14.21.27-.92,3.8-4.38,6.97-9.93,6.97-7.32,0-11.45-5.12-11.45-11.71h0ZM380.6,21.22h9.82c-.17-2.8-2.02-4.74-4.69-4.74-3.1,0-4.61,1.85-5.12,4.74Z" />
    <path d="M405.45,15.58h.13c1.51-2.37,3.53-3.62,6.54-3.62,4.56,0,7.62,3.44,7.62,8.27v14.21c0,.12-.1.22-.22.22h-5.43c-.12,0-.22-.1-.22-.22v-13.35c0-2.37-1.38-4.05-3.83-4.05-2.58,0-4.48,2.07-4.48,5.08v12.31c0,.12-.1.22-.22.22h-5.43c-.12,0-.22-.1-.22-.22V12.79c0-.12.1-.22.22-.22h5.29c.12,0,.22.1.22.22v2.8h.03Z" />
    <path d="M436.17,27.51h5.01c.1,0,.19.08.21.18.44,2.42,2.23,3.48,4.8,3.48s4.05-.99,4.05-2.54c0-2.11-2.8-2.33-5.81-2.93-3.96-.77-7.84-1.85-7.84-6.67s3.96-7.06,9-7.06c5.7,0,8.92,2.78,9.45,7.07.01.13-.09.24-.22.24h-4.87c-.11,0-.19-.08-.21-.19-.32-2.22-1.81-3.04-4.24-3.04-2.28,0-3.79.86-3.79,2.46,0,1.89,2.93,2.07,6.07,2.71,3.71.77,7.79,1.81,7.79,6.97,0,4.43-3.79,7.1-9.3,7.1-6.3,0-9.87-3-10.31-7.55-.01-.13.09-.24.22-.24h0Z" />
    <path d="M37.84,5.46c-.22-.53-.6-.99-1.09-1.29C32.39,1.4,26.59,0,20.12,0S7.91,1.41,3.56,4.18c-.52.33-.94.81-1.17,1.38C.79,9.5,0,14.17,0,19.21s.81,9.87,2.43,13.86c.25.62.7,1.14,1.26,1.5,4.34,2.65,10.07,3.96,16.43,3.96s12.14-1.31,16.49-3.95c.5-.3.89-.76,1.12-1.3,1.73-4.03,2.61-8.84,2.61-14.07s-.84-9.8-2.51-13.76ZM18.07,28.76l-7.39-7.39c-1.17-1.17-1.17-3.05,0-4.22l7.39-7.39c1.17-1.17,3.05-1.17,4.22,0l7.39,7.39c1.17,1.17,1.17,3.05,0,4.22l-7.39,7.39c-1.17,1.17-3.05,1.17-4.22,0Z" />
</svg>