<svg width="138" height="32" viewBox="0 0 138 32" fill="none" xmlns="http://www.w3.org/2000/svg">
<path d="M7.47751 20.9172V30.5487C7.47751 30.7561 7.31075 30.9228 7.10343 30.9228H4.99864C2.21779 30.9228 -0.0312214 28.6513 0.000327921 25.8614C0.0318772 23.1121 2.33047 20.9217 5.07976 20.9217L7.47751 20.9172Z" fill="#FF5A67"/>
<path d="M25.3299 10.4924C25.3119 16.2749 20.5344 20.9172 14.7519 20.9172H7.47751V0.387606C7.47751 0.171268 7.65328 0 7.86512 0H14.8736C20.6606 0 25.3524 4.70085 25.3344 10.4924" fill="#FF5A67"/>
<path d="M49.0505 5.14254V16.4056H55.5496C60.0837 16.4056 62.2381 14.5307 62.2381 10.8214C62.2381 6.83719 59.9936 5.14254 55.5496 5.14254H49.0505ZM49.0505 30.7651C49.0505 31.0716 48.8026 31.3194 48.4961 31.3194H45.2015C44.895 31.3194 44.6471 31.0716 44.6471 30.7651V1.84338C44.6471 1.5369 44.895 1.28902 45.2015 1.28902H56.0499C63.0133 1.28902 66.7226 4.85859 66.7226 10.7673C66.7226 16.6761 62.9682 20.1555 55.9598 20.1555H49.0505V30.7651Z" fill="#3F3A60"/>
<path d="M75.6646 28.2952C79.6939 28.2952 82.3981 25.6856 82.3981 22.0665V21.2777C82.3981 20.827 81.9744 20.5025 81.5417 20.6152C81.082 20.7324 80.451 20.8496 79.6488 20.9668L75.0696 21.5166C72.5953 21.7916 71.3603 22.8913 71.3603 24.8158C71.3603 26.9701 72.9648 28.2952 75.6646 28.2952ZM82.2178 16.5724V16.2073C82.2178 13.5031 80.433 11.9932 77.3637 11.9932C74.2944 11.9932 72.3609 13.7104 72.1581 16.009C72.1401 16.2254 71.9643 16.3921 71.7434 16.3921H68.4443C68.2054 16.3921 68.0161 16.1938 68.0296 15.9549C68.1423 13.9944 69.0077 12.0834 70.6302 10.8034C72.415 9.42873 74.6595 8.74366 77.4088 8.74366C83.1327 8.74366 86.3418 11.6732 86.3418 16.8518V30.7741C86.3418 31.0806 86.0939 31.3285 85.7874 31.3285H82.9525C82.646 31.3285 82.3981 31.0806 82.3981 30.7741V27.4344C81.2984 30.0439 78.2741 31.7882 74.655 31.7882C72.5006 31.7882 70.7609 31.1932 69.3412 29.9538C67.9215 28.7189 67.2319 27.2045 67.2319 25.3296C67.2319 21.7104 69.6161 19.3758 74.2403 18.7808L81.0189 17.911C81.704 17.7758 82.2088 17.3161 82.2088 16.5814" fill="#3F3A60"/>
<path d="M92.8274 31.3194H89.8077C89.5012 31.3194 89.2533 31.0716 89.2533 30.7651V9.65409C89.2533 9.34761 89.5012 9.09972 89.8077 9.09972H92.6426C92.9491 9.09972 93.197 9.34761 93.197 9.65409V13.2507C93.197 13.431 93.4493 13.4761 93.5124 13.3093C94.4499 10.7944 96.9603 9.10423 100.025 9.10423H100.115C100.345 9.10423 100.53 9.28902 100.53 9.51888V12.4079C100.53 12.6287 100.354 12.8135 100.133 12.8225C95.9282 12.9893 93.3817 15.8603 93.3817 21.0614V30.7696C93.3817 31.0761 93.1339 31.3239 92.8274 31.3239" fill="#3F3A60"/>
<path d="M105.524 3.56057H108.314C108.62 3.56057 108.868 3.80845 108.868 4.11493V9.10423H114.547C114.853 9.10423 115.101 9.35211 115.101 9.65859V12.2772C115.101 12.5837 114.853 12.8316 114.547 12.8316H108.643V23.1256C108.643 26.4699 109.607 27.6597 112.721 27.6597H114.826C115.133 27.6597 115.381 27.9076 115.381 28.2141V30.6839C115.381 30.9724 115.16 31.2113 114.871 31.2338C114.096 31.2924 113.181 31.3239 112.176 31.3239C107.002 31.3239 104.618 28.8946 104.618 23.5808V12.827H102.635C102.328 12.827 102.08 12.5792 102.08 12.2727V9.65409C102.08 9.34761 102.328 9.09972 102.635 9.09972H103.329C104.244 9.09972 104.987 8.35606 104.987 7.44113V4.10592C104.987 3.79944 105.235 3.55155 105.542 3.55155" fill="#3F3A60"/>
<path d="M126.509 12.2186C122.889 12.2186 120.235 14.738 120.05 18.4023H132.647C132.602 14.738 130.128 12.2186 126.509 12.2186ZM136.239 24.2659C136.51 24.2659 136.712 24.5228 136.64 24.7887C135.437 29.1921 131.809 31.7792 126.693 31.7792C123.534 31.7792 120.92 30.6794 118.86 28.5251C116.8 26.3707 115.791 23.6259 115.791 20.2817C115.791 16.9375 116.8 14.098 118.77 11.9437C120.785 9.7893 123.349 8.68958 126.463 8.68958C129.578 8.68958 132.052 9.69916 133.932 11.7138C135.856 13.6834 136.816 16.293 136.816 19.547C136.816 20.0563 136.798 20.453 136.771 20.7504C136.739 21.0299 136.505 21.2417 136.221 21.2417H119.96C119.96 23.2113 120.6 24.9059 121.929 26.2355C123.259 27.5651 124.814 28.2501 126.693 28.2501C129.812 28.2501 131.917 26.9025 132.53 24.5724C132.579 24.3921 132.742 24.2614 132.931 24.2614H136.239V24.2659Z" fill="#3F3A60"/>
</svg>
